<svg xmlns="http://www.w3.org/2000/svg" data-name="Layer 1" viewBox="0 0 168 168"><circle cx="2" cy="148.25" r="2" fill="white"/><path fill="white" d="M11 146.25H8a2 2 0 0 0 0 4h3a2 2 0 0 0 0-4zM160 146.25h-3a2 2 0 0 0 0 4h3a2 2 0 0 0 0-4z"/><circle cx="166" cy="148.25" r="2" fill="white"/><path fill="white" d="M118.15387 154.25h-8.30774a2.00641 2.00641 0 0 0 0 4h8.30774a2.00641 2.00641 0 0 0 0-4zM58.15387 154.25H49.84613a2.00641 2.00641 0 0 0 0 4h8.30774a2.00641 2.00641 0 0 0 0-4zM104 154.25H64a2 2 0 0 0 0 4H79.94v2H72a2 2 0 0 0 0 4H97a2 2 0 0 0 0-4H88.06v-2H104a2 2 0 0 0 0-4zM119 63.25H49a2 2 0 0 0 0 4h70a2 2 0 0 0 0-4z"/><path fill="white" d="M49,77.25h57.93115a2,2,0,1,0,0-4H49a2,2,0,0,0,0,4Z"/><path fill="white" d="M119,83.25H49a2,2,0,0,0,0,4h70a2,2,0,0,0,0-4Z"/><path fill="#2d4356" d="M49 97.25h57.93115a2 2 0 1 0 0-4H49a2 2 0 0 0 0 4zM108.09863 113.63226l-3.38007 3.22552c.046.12836.07837.26276.122.39221h2.09058a1.99594 1.99594 0 0 0 1.16748-3.61774zM47 115.25a2.0001 2.0001 0 0 0 2 2H63.14844a21.8866 21.8866 0 0 1 1.81128-4H49A2.0001 2.0001 0 0 0 47 115.25z"/><path fill="#0bceb2" d="M49 107.25H70.05219a21.97957 21.97957 0 0 1 7.38556-4H49a2 2 0 0 0 0 4zM119 103.25H90.49158a21.99645 21.99645 0 0 1 7.15863 3.766l2.20721-2.10632a5.99405 5.99405 0 0 1 9.79626 2.34033H119a2 2 0 0 0 0-4z"/><path fill="#2d4356" d="M97.95264,123.31451c.02069.31061.04736.61969.04736.93549a14,14,0,0,1-28,0c0-.30511.02649-.60352.04578-.90381a5.97883,5.97883,0,0,1,.52179-3.01068,13.98017,13.98017,0,0,1,21.21191-7.71722l2.93335-2.79926A18.11977,18.11977,0,1,0,101.463,119.9646Z"/><path fill="#0bceb2" d="M77.34912,121.33887a2.00009,2.00009,0,1,0-2.69824,2.95313l7.042,6.43457a2.00014,2.00014,0,0,0,2.73-.02979l20.958-20a2,2,0,0,0-2.76172-2.89355L83.01221,126.51367Z"/><path fill="white" d="M150.72131 146.25H131.91754a7.94058 7.94058 0 0 0 1.08246-4v-112a8.009 8.009 0 0 0-8-8H43a8.009 8.009 0 0 0-8 8v112a7.94058 7.94058 0 0 0 1.08246 4H17.27869a2.017 2.017 0 1 0 0 4H150.72131a2.017 2.017 0 1 0 0-4zM39 30.25a4 4 0 0 1 4-4h82a4 4 0 0 1 4 4v23H39zm4 116a4 4 0 0 1-4-4v-85h90v70.17188L110.17188 146.25zm72.82813 0L129 133.07813V142.25a4 4 0 0 1-4 4zM52.97986 17.86305a3 3 0 1 0-3-3A3.00344 3.00344 0 0 0 52.97986 17.86305zm0-4.5a1.5 1.5 0 1 1-1.5 1.5A1.50148 1.50148 0 0 1 52.97986 13.36305zM162 64.237a2 2 0 1 0 2 2A2.00229 2.00229 0 0 0 162 64.237zm0 3a1 1 0 1 1 1-1A1.001 1.001 0 0 1 162 67.237zM4 3.75a2 2 0 1 0 2 2A2.00229 2.00229 0 0 0 4 3.75zm0 3a1 1 0 1 1 1-1A1.001 1.001 0 0 1 4 6.75zM131 12.86305a2 2 0 1 0 2 2A2.00229 2.00229 0 0 0 131 12.86305zm0 3a1 1 0 1 1 1-1A1.001 1.001 0 0 1 131 15.86305zM17.30471 30.25a2 2 0 1 0-2 2A2.00229 2.00229 0 0 0 17.30471 30.25zm-3 0a1 1 0 1 1 1 1A1.001 1.001 0 0 1 14.30471 30.25z"/><polygon fill="white" points="10.888 71.261 12.375 69.306 11.436 68.774 10.481 70.964 10.45 70.964 9.48 68.789 8.525 69.337 9.996 71.246 9.996 71.277 7.695 70.98 7.695 72.044 10.011 71.747 10.011 71.778 8.525 73.686 9.416 74.25 10.434 72.044 10.465 72.044 11.404 74.234 12.39 73.671 10.888 71.793 10.888 71.762 13.25 72.044 13.25 70.98 10.888 71.292 10.888 71.261"/><polygon fill="white" points="80.899 5.903 80.043 7.002 80.556 7.327 81.142 6.056 81.16 6.056 81.701 7.318 82.268 6.993 81.404 5.912 81.404 5.894 82.764 6.056 82.764 5.444 81.404 5.624 81.404 5.606 82.26 4.48 81.719 4.173 81.169 5.434 81.151 5.434 80.593 4.182 80.043 4.497 80.89 5.597 80.89 5.615 79.565 5.444 79.565 6.056 80.899 5.885 80.899 5.903"/><polygon fill="white" points="146.724 42.957 146.724 41.914 144.407 42.22 144.407 42.19 145.866 40.272 144.945 39.75 144.009 41.898 143.977 41.898 143.027 39.765 142.089 40.302 143.533 42.175 143.533 42.205 141.276 41.914 141.276 42.957 143.548 42.666 143.548 42.697 142.089 44.568 142.964 45.121 143.963 42.957 143.992 42.957 144.913 45.106 145.881 44.553 144.407 42.712 144.407 42.681 146.724 42.957"/><polygon fill="#0bceb2" points="162.351 11.651 163.609 9.996 162.815 9.546 162.008 11.399 161.981 11.399 161.16 9.559 160.352 10.023 161.597 11.638 161.597 11.664 159.65 11.413 159.65 12.313 161.61 12.062 161.61 12.088 160.352 13.703 161.106 14.18 161.968 12.313 161.994 12.313 162.788 14.166 163.622 13.69 162.351 12.101 162.351 12.075 164.35 12.313 164.35 11.413 162.351 11.677 162.351 11.651"/></svg>